<svg width="80" height="80" viewBox="0 0 80 80" fill="none" xmlns="http://www.w3.org/2000/svg">
<path d="M36.5484 30.8486C36.5449 27.349 36.7497 27.6064 36.7437 27.6064C36.3894 27.4015 36.0454 27.2027 34.9567 27.1633C32.0883 27.2405 29.9667 27.43 28.7428 27.8022C26.4418 28.6196 24.6187 29.2468 23.7056 29.86C22.3133 30.7951 20.8351 32.2813 19.0256 33.7284C17.0222 35.3305 15.4843 36.4831 14.4844 36.8092C13.5773 37.105 12.4499 37.3887 11.3907 37.2306C10.4617 37.0919 6.89266 35.5229 6.14111 33.4897C5.9836 33.0636 5.85183 32.0566 6.02913 30.6345C6.18774 29.3624 6.45803 27.8658 7.5766 25.6362C8.30689 24.1806 9.39625 22.1173 10.2887 20.8433C11.6207 18.9417 12.2665 18.18 12.7745 17.893C13.5546 17.4521 15.3219 16.7209 17.4203 16.2346C18.4646 15.9926 20.5624 15.6883 23.4794 15.9878C25.9096 16.2374 26.7829 16.4808 27.3404 17.0874C27.6889 17.4666 28.8818 19.8506 31.173 22.8793C32.5139 24.6518 33.1698 25.3697 33.579 25.6079L33.5916 25.6153C34.3613 26.0635 35.1248 26.5082 38.1917 26.3361C40.1189 26.228 41.2905 26.2645 44.861 24.6787C47.7525 23.3945 53.1126 20.9679 56.0543 19.6936C58.9959 18.4193 59.5036 18.3008 60.4857 18.2564C61.4678 18.212 62.8962 18.1575 64.5085 18.4887C67.9223 19.1898 70.4089 19.8337 71.4374 20.5076C72.2346 21.03 72.8969 21.5278 73.4529 22.2928C74.1812 23.2948 75.6614 25.4792 76.5003 28.2133C76.9735 29.7554 77.2038 32.1955 76.638 33.6921C76.3441 34.4697 75.9608 35.5768 74.953 36.1666C74.3513 36.5188 73.664 37.0598 71.5073 36.7314C70.4184 36.5656 69.4452 36.313 66.214 34.3881C63.3905 32.706 58.3789 29.548 55.5986 28.0256C52.4592 26.3066 51.7395 26.1222 49.9023 26.1899C48.37 26.2463 45.672 26.2578 43.6504 26.6539C40.2431 27.3214 38.4368 27.6791 38.3899 28.031C38.3532 28.3062 38.4876 28.865 38.5206 29.9881C38.5608 31.3572 38.5902 33.2386 39.542 36.0726C40.1852 37.9876 41.3569 40.7435 41.959 42.7246C42.8877 45.7808 43.2478 47.4578 43.0363 48.6175C42.7953 49.9393 42.2353 51.4341 41.8712 52.8736C41.6237 53.8525 41.384 54.9932 41.5689 56.1786C41.7331 57.2302 41.9755 57.859 42.5099 58.177C43.1702 58.5699 44.0221 58.4906 45.8334 59.0947C47.2171 59.5562 48.2249 59.9878 48.5587 60.5653L48.5675 60.5806C48.8885 61.1357 49.4932 62.1814 48.7525 63.6442C47.9003 65.3273 47.162 66.7722 44.8683 67.9312C43.7234 68.5096 41.4498 69.1262 38.3336 68.3081C37.0018 67.9584 36.1545 67.4901 35.6299 66.6343C35.4476 66.3369 34.2898 64.2129 33.3434 60.5629C32.9384 59.0009 32.883 57.9154 32.9899 57.069C33.1737 55.615 33.5058 54.207 34.4127 52.4144C34.9621 51.3287 35.758 49.9439 36.1554 45.6458C36.5529 41.3477 36.5519 34.3483 36.5484 30.8486Z" fill="black" stroke="black" stroke-width="0.889159" stroke-linecap="round"/>
</svg>
